<svg width="22" height="26" viewBox="0 0 22 26" xmlns="http://www.w3.org/2000/svg"><title>PIZZA</title><g fill="none" fill-rule="evenodd"><path d="M15.9 5.184l-.556-2.37A24.016 24.016 0 0 0 .974 13.147l2.07 1.283A21.582 21.582 0 0 1 15.9 5.184" fill="#020302"/><path d="M15.9 5.184l-.556-2.37A24.016 24.016 0 0 0 .974 13.147l2.07 1.283A21.582 21.582 0 0 1 15.9 5.184z" stroke="#020302" stroke-width=".992" stroke-linecap="round"/><path d="M16.216 6.527L15.9 5.184a21.577 21.577 0 0 0-12.855 9.245l1.172.726a20.208 20.208 0 0 1 11.999-8.628" fill="#020302"/><path d="M16.216 6.527L15.9 5.184a21.577 21.577 0 0 0-12.855 9.245l1.172.726a20.208 20.208 0 0 1 11.999-8.628z" stroke="#020302" stroke-width=".992" stroke-linecap="round"/><path d="M16.216 6.527a20.211 20.211 0 0 0-12 8.628l16.417 10.17-4.417-18.798z" fill="#020302"/><path d="M16.216 6.527a20.211 20.211 0 0 0-12 8.628l16.417 10.17-4.417-18.798z" stroke="#020302" stroke-width=".992" stroke-linecap="round"/><path d="M17.372 3.261l-.346-2.41A24.018 24.018 0 0 0 1.802 9.876l1.948 1.46A21.582 21.582 0 0 1 17.372 3.26" fill="#FEFEFE"/><path d="M17.372 3.261l-.346-2.41A24.018 24.018 0 0 0 1.802 9.876l1.948 1.46A21.582 21.582 0 0 1 17.372 3.26z" stroke="#020302" stroke-width=".992" stroke-linecap="round"/><path d="M17.568 4.627l-.196-1.365a21.57 21.57 0 0 0-13.62 8.073l1.102.826a20.211 20.211 0 0 1 12.714-7.534" fill="#020302"/><path d="M17.568 4.627l-.196-1.365a21.57 21.57 0 0 0-13.62 8.073l1.102.826a20.211 20.211 0 0 1 12.714-7.534z" stroke="#020302" stroke-width=".992" stroke-linecap="round"/><path d="M17.568 4.627A20.211 20.211 0 0 0 4.854 12.16l15.454 11.58-2.74-19.114z" fill="#FEFEFE"/><path d="M17.568 4.627A20.211 20.211 0 0 0 4.854 12.16l15.454 11.58-2.74-19.114z" stroke="#020302" stroke-width=".992" stroke-linecap="round"/><path d="M16.79 14.792a1.62 1.62 0 1 0-1.941 2.593 1.62 1.62 0 0 0 1.94-2.593M16.257 8.868a1.671 1.671 0 1 0-2.003 2.676 1.671 1.671 0 0 0 2.003-2.676M11.953 10.33a2.132 2.132 0 0 0-2.98.429 2.13 2.13 0 0 0 3.408 2.553 2.13 2.13 0 0 0-.428-2.981" fill="#020302"/></g></svg>